<svg width="66" height="40" viewBox="0 0 66 40" fill="none" xmlns="http://www.w3.org/2000/svg">
<g filter="url(#filter0_b)">
<path d="M0 20C0 8.95431 8.95431 0 20 0H46C57.0457 0 66 8.95431 66 20C66 31.0457 57.0457 40 46 40H20C8.95431 40 0 31.0457 0 20Z" fill="white" fill-opacity="0.1"/>
<path d="M25.2355 20.248C25.6302 20.248 25.9742 20.2 26.2675 20.104C26.5608 20.0027 26.8035 19.8613 26.9955 19.68C27.1928 19.4933 27.3395 19.2693 27.4355 19.008C27.5315 18.7413 27.5795 18.4453 27.5795 18.12C27.5795 17.8107 27.5315 17.5307 27.4355 17.28C27.3395 17.0293 27.1955 16.816 27.0035 16.64C26.8115 16.464 26.5688 16.3307 26.2755 16.24C25.9822 16.144 25.6355 16.096 25.2355 16.096H23.6275V20.248H25.2355ZM25.2355 14.432C26.0088 14.432 26.6782 14.5227 27.2435 14.704C27.8088 14.8853 28.2755 15.1387 28.6435 15.464C29.0115 15.7893 29.2835 16.1787 29.4595 16.632C29.6408 17.0853 29.7315 17.5813 29.7315 18.12C29.7315 18.68 29.6382 19.1947 29.4515 19.664C29.2648 20.128 28.9848 20.528 28.6115 20.864C28.2382 21.2 27.7688 21.4613 27.2035 21.648C26.6435 21.8347 25.9875 21.928 25.2355 21.928H23.6275V26H21.4755V14.432H25.2355ZM38.5258 17.792L34.0538 28.256C33.9951 28.3947 33.9178 28.4987 33.8218 28.568C33.7311 28.6427 33.5898 28.68 33.3978 28.68H31.9258L33.4618 25.384L30.1418 17.792H31.8778C32.0324 17.792 32.1524 17.8293 32.2378 17.904C32.3284 17.9787 32.3951 18.064 32.4378 18.16L34.1818 22.416C34.2404 22.56 34.2884 22.704 34.3258 22.848C34.3684 22.992 34.4084 23.1387 34.4458 23.288C34.4938 23.1387 34.5418 22.992 34.5898 22.848C34.6378 22.6987 34.6911 22.552 34.7498 22.408L36.3978 18.16C36.4404 18.0533 36.5098 17.9653 36.6058 17.896C36.7071 17.8267 36.8191 17.792 36.9418 17.792H38.5258ZM45.1373 19.528C45.0786 19.6027 45.0199 19.6613 44.9613 19.704C44.9079 19.7467 44.8279 19.768 44.7213 19.768C44.6199 19.768 44.5213 19.7387 44.4253 19.68C44.3293 19.616 44.2146 19.5467 44.0813 19.472C43.9479 19.392 43.7879 19.3227 43.6013 19.264C43.4199 19.2 43.1933 19.168 42.9213 19.168C42.5746 19.168 42.2706 19.232 42.0093 19.36C41.7479 19.4827 41.5293 19.6613 41.3533 19.896C41.1826 20.1307 41.0546 20.416 40.9693 20.752C40.8839 21.0827 40.8413 21.4587 40.8413 21.88C40.8413 22.3173 40.8866 22.7067 40.9773 23.048C41.0733 23.3893 41.2093 23.6773 41.3853 23.912C41.5613 24.1413 41.7746 24.3173 42.0253 24.44C42.2759 24.5573 42.5586 24.616 42.8733 24.616C43.1879 24.616 43.4413 24.5787 43.6333 24.504C43.8306 24.424 43.9959 24.3387 44.1293 24.248C44.2626 24.152 44.3773 24.0667 44.4733 23.992C44.5746 23.912 44.6866 23.872 44.8093 23.872C44.9693 23.872 45.0893 23.9333 45.1693 24.056L45.7373 24.776C45.5186 25.032 45.2813 25.248 45.0253 25.424C44.7693 25.5947 44.5026 25.7333 44.2253 25.84C43.9533 25.9413 43.6706 26.0133 43.3773 26.056C43.0893 26.0987 42.8013 26.12 42.5133 26.12C42.0066 26.12 41.5293 26.0267 41.0813 25.84C40.6333 25.648 40.2413 25.3707 39.9053 25.008C39.5693 24.6453 39.3026 24.2027 39.1053 23.68C38.9133 23.152 38.8173 22.552 38.8173 21.88C38.8173 21.2773 38.9026 20.72 39.0733 20.208C39.2493 19.6907 39.5053 19.2453 39.8413 18.872C40.1773 18.4933 40.5933 18.1973 41.0893 17.984C41.5853 17.7707 42.1559 17.664 42.8012 17.664C43.4146 17.664 43.9506 17.7627 44.4093 17.96C44.8733 18.1573 45.2893 18.44 45.6573 18.808L45.1373 19.528Z" fill="white"/>
<path d="M20 1H46V-1H20V1ZM46 39H20V41H46V39ZM20 39C9.50659 39 1 30.4934 1 20H-1C-1 31.598 8.40202 41 20 41V39ZM65 20C65 30.4934 56.4934 39 46 39V41C57.598 41 67 31.598 67 20H65ZM46 1C56.4934 1 65 9.50659 65 20H67C67 8.40202 57.598 -1 46 -1V1ZM20 -1C8.40202 -1 -1 8.40202 -1 20H1C1 9.50659 9.50659 1 20 1V-1Z" fill="white" fill-opacity="0.3"/>
</g>
<defs>
<filter id="filter0_b" x="-80" y="-80" width="226" height="200" filterUnits="userSpaceOnUse" color-interpolation-filters="sRGB">
<feFlood flood-opacity="0" result="BackgroundImageFix"/>
<feGaussianBlur in="BackgroundImage" stdDeviation="40"/>
<feComposite in2="SourceAlpha" operator="in" result="effect1_backgroundBlur"/>
<feBlend mode="normal" in="SourceGraphic" in2="effect1_backgroundBlur" result="shape"/>
</filter>
</defs>
</svg>
